<mxfile host="app.diagrams.net" modified="2023-11-01T15:01:51.925Z" agent="Mozilla/5.0 (Windows NT 10.0; Win64; x64) AppleWebKit/537.36 (KHTML, like Gecko) Chrome/118.0.0.0 Safari/537.36" version="22.0.8" etag="S1k9HLIagXq9jXQqFjwO" type="github">
  <diagram name="Page-1" id="iaZ78Tpp4MMBf7YpNLYp">
    <mxGraphModel>
      <root>
        <mxCell id="0" />
        <mxCell id="1" parent="0" />
      </root>
    </mxGraphModel>
  </diagram>
</mxfile>
